# xmcd
#
# Track frame offsets:
#	150
#	16473
#	51601
#	68085
#	91881
#	116282
#	156345
#	189194
#	214308
#	235520
#
# Disc length: 3928 seconds
#
# Revision: 1
# Processed by: cddbd v1.5.2PL0 Copyright (c) Steve Scherf et al.
# Submitted via: audiograbber 1.83.01
#
DISCID=800f560a
DTITLE=Grateful Dead - 73-09-07 Nassau Veterans Memorial Coliseum, Uniondale NY
DYEAR=1900
DGENRE=
TTITLE0=Promised Land
TTITLE1=Sugaree
TTITLE2=Mexicali Blues
TTITLE3=They Love Each Other
TTITLE4=Jack Straw
TTITLE5=Row Jimmy
TTITLE6=Looks Like Rain
TTITLE7=Deal
TTITLE8=El Paso
TTITLE9=Bird Song
EXTD=
EXTT0=
EXTT1=
EXTT2=
EXTT3=
EXTT4=
EXTT5=
EXTT6=
EXTT7=
EXTT8=
EXTT9=
PLAYORDER=
